<svg xmlns="http://www.w3.org/2000/svg" width="1200" height="360" viewBox="0 0 1200 360" role="img" aria-labelledby="title desc">
  <title id="title">Blue Life Commons</title>
  <desc id="desc">An open Ocean Intelligence commons for source-led artifacts, ethics review, and public contribution workflows.</desc>
  <defs>
    <linearGradient id="bg" x1="0" y1="0" x2="1" y2="1">
      <stop offset="0" stop-color="#041014"/>
      <stop offset="0.68" stop-color="#06202A"/>
      <stop offset="1" stop-color="#083241"/>
    </linearGradient>
    <linearGradient id="line" x1="0" y1="0" x2="1" y2="0">
      <stop offset="0" stop-color="#4FD1C5"/>
      <stop offset="1" stop-color="#38BDF8"/>
    </linearGradient>
  </defs>
  <rect width="1200" height="360" fill="url(#bg)"/>
  <g opacity="0.16" stroke="#4FD1C5" stroke-width="1">
    <path d="M80 72H1120M80 120H1120M80 168H1120M80 216H1120M80 264H1120"/>
    <path d="M140 48V312M250 48V312M360 48V312M470 48V312M580 48V312M690 48V312M800 48V312M910 48V312M1020 48V312"/>
  </g>
  <g font-family="Inter, Geist, Arial, Helvetica, sans-serif">
    <text x="72" y="82" fill="#4FD1C5" font-size="14" font-weight="800" letter-spacing="2">OPEN OCEAN INTELLIGENCE COMMONS</text>
    <text x="72" y="134" fill="#F2FBFF" font-size="48" font-weight="850">Blue Life</text>
    <text x="72" y="188" fill="#F2FBFF" font-size="48" font-weight="850">Commons</text>
    <text x="74" y="229" fill="#A9D7E2" font-size="20" font-weight="500">Marine-life documentation, research collaboration,</text>
    <text x="74" y="258" fill="#A9D7E2" font-size="20" font-weight="500">and conservation workflows with sources and review.</text>

    <g transform="translate(72 296)">
      <rect width="114" height="34" rx="17" fill="#06202A" stroke="#4FD1C5" stroke-opacity="0.62"/>
      <text x="20" y="23" fill="#F2FBFF" font-size="13" font-weight="750">sources</text>
      <rect x="128" width="110" height="34" rx="17" fill="#06202A" stroke="#38BDF8" stroke-opacity="0.62"/>
      <text x="152" y="23" fill="#F2FBFF" font-size="13" font-weight="750">ethics</text>
      <rect x="252" width="122" height="34" rx="17" fill="#06202A" stroke="#F5B84B" stroke-opacity="0.72"/>
      <text x="276" y="23" fill="#F2FBFF" font-size="13" font-weight="750">public artifact</text>
    </g>

    <g transform="translate(570 68)">
      <rect width="520" height="226" rx="20" fill="#071D24" stroke="#4FD1C5" stroke-opacity="0.42"/>
      <g transform="translate(34 48)">
        <rect width="94" height="76" rx="12" fill="#041014" stroke="#4FD1C5" stroke-opacity="0.68"/>
        <text x="24" y="33" fill="#F2FBFF" font-size="14" font-weight="800">Issue</text>
        <text x="20" y="55" fill="#A9D7E2" font-size="12" font-weight="650">request</text>
      </g>
      <g transform="translate(164 48)">
        <rect width="94" height="76" rx="12" fill="#041014" stroke="#38BDF8" stroke-opacity="0.62"/>
        <text x="20" y="33" fill="#F2FBFF" font-size="14" font-weight="800">Sources</text>
        <text x="25" y="55" fill="#A9D7E2" font-size="12" font-weight="650">ledger</text>
      </g>
      <g transform="translate(294 48)">
        <rect width="94" height="76" rx="12" fill="#041014" stroke="#F5B84B" stroke-opacity="0.72"/>
        <text x="24" y="33" fill="#F2FBFF" font-size="14" font-weight="800">Review</text>
        <text x="23" y="55" fill="#A9D7E2" font-size="12" font-weight="650">ethics</text>
      </g>
      <g transform="translate(424 48)">
        <rect width="64" height="76" rx="12" fill="#041014" stroke="#4FD1C5" stroke-opacity="0.68"/>
        <text x="13" y="33" fill="#F2FBFF" font-size="14" font-weight="800">Ship</text>
        <text x="14" y="55" fill="#A9D7E2" font-size="12" font-weight="650">page</text>
      </g>
      <path d="M128 86H164M258 86H294M388 86H424" stroke="url(#line)" stroke-width="3"/>
      <path d="M82 156C150 194 252 194 320 156S436 118 488 156" stroke="#38BDF8" stroke-width="3" fill="none" opacity="0.52"/>
      <text x="38" y="190" fill="#A9D7E2" font-size="13" font-weight="700">Every artifact is source-led, review-gated, and public by default.</text>
    </g>
  </g>
</svg>
